<svg xmlns="http://www.w3.org/2000/svg"
     xml:space="preserve"
     width="154.34373mm"
     height="176.75206mm"
     viewBox="0 0 154.34373 176.75206"
     fill="currentColor"
     stroke="currentColor">
  <path d="M32.13582 159.36328C15.56034 149.79945 1.54891 141.60131.99928 141.14515c-.87723-.72803-.99929-7.17837-.99929-52.80742V36.35967l1.81372-1.25942c1.46976-1.02057 27.906-16.36574 55.56634-32.25402C60.10065 1.28348 62.70055.00268 63.15756 0c.45703-.003 9.50923 4.99694 20.11601 11.11032 53.48584 30.8274 62.49773 36.02791 66.61268 38.44055l4.45749 2.61348-.17048 36.34013-.17046 36.34014-10.22285 5.91524c-11.50953 6.65971-15.92089 9.20821-53.16762 30.71562-14.55084 8.40212-26.87983 15.27657-27.39769 15.27657-.51784 0-14.50332-7.82495-31.07882-17.38877zm28.04729 10.53482c1.52294-1.1561 1.65177-7.32386.16474-7.89444-.5441-.20891-.9893-.68573-.9893-1.05986 0-.37415.4452-.68024.9893-.68024.76948 0 .98933-.8794.98933-3.95727 0-2.81403-.23819-3.90958-.82443-3.79232-.45344.0909-.82443-.28034-.82443-.82445 0-.54412.37099-.91512.82443-.82442.58624.11719.82443-.97834.82443-3.7924 0-2.81402-.23819-3.90959-.82443-3.79232-.45344.0909-.82443-.28031-.82443-.82443 0-.54413.37099-.91511.82443-.82444.45344.0909.82443-.0726.82443-.36341 0-.46332-3.16223-2.38425-11.99361-7.28562-1.33666-.74186-3.6309-2.10672-5.09835-3.0331-1.46745-.92635-3.11917-1.68428-3.67047-1.68428-.55135 0-1.00244-.24193-1.00244-.53808 0-.29595-1.18716-1.2053-2.63815-2.02082-2.66973-1.50047-3.81625-.76251-1.48399.95513 1.09927.80958 1.09927.87132 0 1.29749-1.5459.59929-1.68579 7.21611-.16475 7.79976.54412.20893.9893.68572.9893 1.05988 0 .37412-.44518.68022-.9893.68022-.76946 0-.98933.87943-.98933 3.95727 0 2.81402.23821 3.9096.82442 3.79233.45344-.0909.82443.28031.82443.82442 0 .54416-.37099.91512-.82443.82446-.58625-.11719-.82442.97831-.82442 3.79236 0 3.19494.20421 3.95725 1.05987 3.95725.66497 0 .92028.36383.68515.9765-.48479 1.2634 4.71353 4.38433 6.90161 4.14352 1.09208-.1201 1.52815.13107 1.41969.81857-.19379 1.22775 6.1364 4.95055 6.74456 3.96651.68338-1.1057 1.77111-.75877 1.5133.48265-.16476.79347.69612 1.71755 2.75467 2.9567 3.45873 2.08201 3.29964 2.052 4.80813.90688zm-3.46258-4.02846c0-.54411.44516-.98933.9893-.98933.54412 0 .9893.44522.9893.98933 0 .54412-.44518.9893-.9893.9893-.54414 0-.9893-.44518-.9893-.9893zm-8.57407-4.6168c0-.54411.44522-.98928.98933-.98928.54412 0 .9893.44517.9893.98928 0 .54414-.44518.98932-.9893.98932-.54411 0-.98933-.44518-.98933-.98932zm5.63427.37537c-.48774-.78922.75295-1.57119 1.63145-1.02824.73761.45586.2534 1.64219-.67029 1.64219-.31993 0-.75246-.27629-.96116-.61395zm-13.76858-4.4425c-.75891-.7589-.48031-1.53894.54959-1.53894.54412 0 .98933.44517.98933.98929 0 1.02994-.78003 1.30854-1.53892.54965zm5.49616-.49467c0-.57436.46993-1.04427 1.04426-1.04427.57437 0 .92683.35242.78324.78319-.40767 1.22294-1.8275 1.42576-1.8275.26108zm5.71601.49467c-.75887-.7589-.48031-1.53894.54964-1.53894.54412 0 .9893.44517.9893.98929 0 1.02994-.78005 1.30854-1.53894.54965zm5.49621-.49467c0-.57436.46989-1.04427 1.04426-1.04427.57434 0 .92678.35242.78319.78319-.40763 1.22294-1.82745 1.42576-1.82745.26108zm-19.3645-4.14008c-.74276-.74276-.45237-1.52099.56756-1.52099.54412 0 .98933.27929.98933.62062 0 .83169-1.02998 1.4273-1.55689.90037zm5.3122.036c-.52692-.52694.0688-1.55687.90038-1.55687.34134 0 .62061.44518.62061.98933 0 1.01989-.77822 1.3103-1.52099.56754zm5.90002-.036c-.74276-.74276-.45238-1.52099.56754-1.52099.54412 0 .9893.27929.9893.62062 0 .83169-1.02993 1.4273-1.55684.90037zm5.18147-.20668c-.2258-.36533.0662-.84716.64903-1.07081 1.26281-.48455 1.96659.0494 1.35957 1.0316-.54766.88614-1.47402.90421-2.0086.0392zm-13.8475-4.61212c-.26326-.42596-.18163-1.07129.18089-1.43404.4397-.43969.81908-.40138 1.13819.11494.26327.42596.18189 1.07127-.18087 1.434-.43971.43971-.81909.40139-1.13818-.11494zm5.93587 0c-.26326-.42596-.18163-1.07129.18089-1.43404.43969-.43969.81908-.40138 1.1382.11494.26326.42596.18188 1.07127-.18088 1.434-.43971.43971-.8191.40139-1.13818-.11494zm5.27633 0c-.26325-.42596-.18188-1.07129.18088-1.43404.43968-.43969.8191-.40138 1.13818.11494.26326.42596.18187 1.07127-.18087 1.434-.4397.43971-.8191.40139-1.13819-.11494zm5.93588 0c-.26327-.42596-.1819-1.07129.18087-1.43404.43968-.43969.81909-.40138 1.13818.11494.26326.42596.18187 1.07127-.18087 1.434-.4397.43971-.81911.40139-1.13818-.11494zm-19.78624-4.61682c-.26327-.42596-.1819-1.07125.18086-1.43398.43972-.43971.8191-.40141 1.13819.11493.26326.42595.18189 1.07125-.18087 1.43398-.43972.43971-.81911.40141-1.13822-.11493zm11.21218 0c-.26326-.42596-.18187-1.07125.18089-1.43398.4397-.43971.81911-.40141 1.1382.11493.26326.42595.18188 1.07125-.18088 1.43398-.43966.43971-.81906.40141-1.13817-.11493zm-5.9077-.61395c-.48776-.78922.75297-1.57119 1.63145-1.02824.7376.45588.25337 1.64219-.67028 1.64219-.31997 0-.75245-.27626-.96117-.61395zm11.21219 0c-.20867-.33767-.0776-.80039.29085-1.02824.78709-.48642 1.98938.13076 1.98938 1.02159 0 .80254-1.78512.80775-2.28023.008zm-14.05715-4.78601c.40763-1.22296 1.82749-1.42577 1.82749-.26107 0 .57433-.46993 1.04426-1.04426 1.04426-.57437 0-.9268-.35245-.78323-.78319zm5.78473-.26107c0-1.1647 1.41983-.96189 1.8275.26107.14366.43074-.20892.78319-.78324.78319-.57433 0-1.04426-.46993-1.04426-1.04426zm5.42749.26107c.40763-1.22296 1.82746-1.42577 1.82746-.26107 0 .57433-.46991 1.04426-1.04428 1.04426-.57434 0-.92678-.35245-.78318-.78319zm-14.00151-4.8229c0-.54414.44518-.9893.9893-.9893.54412 0 .98933.44516.98933.9893 0 .54412-.44521.9893-.98933.9893s-.9893-.44518-.9893-.9893zm5.63425.37534c-.48776-.78922.75297-1.57119 1.63145-1.02824.7376.45586.25337 1.6422-.67028 1.6422-.31997 0-.75245-.27628-.96117-.61396zM68.59227 169.497c0-.36273-.29681-.65955-.65957-.65955-.36273 0-.65952.29682-.65952.65955 0 .36276.29679.65955.65952.65955.36276 0 .65957-.29679.65957-.65955zm3.29767-3.29772c0-.36273-.29679-.65952-.65952-.65952-.36276 0-.65955.29679-.65955.65952 0 .36276.29679.65955.65955.65955.36273 0 .65952-.29679.65952-.65955zm-3.29767-3.2977c0-.36276-.29681-.65953-.65957-.65953-.36273 0-.65952.29677-.65952.65953 0 .36275.29679.65955.65952.65955.36276 0 .65957-.2968.65957-.65955zm6.59538 0c0-.36276-.29677-.65953-.65951-.65953-.36278 0-.65957.29677-.65957.65953 0 .36275.29679.65955.65957.65955.36274 0 .65951-.2968.65951-.65955zm-3.29771-3.29768c0-.36275-.29679-.65957-.65952-.65957-.36276 0-.65955.29682-.65955.65957 0 .36272.29679.65953.65955.65953.36273 0 .65952-.29681.65952-.65953zm6.59543 0c0-.36275-.2968-.65957-.65957-.65957-.36272 0-.65951.29682-.65951.65957 0 .36272.29679.65953.65951.65953.36277 0 .65957-.29681.65957-.65953zm6.92517 0c.22407-.36275-.055-.65957-.62063-.65957-.56552 0-1.02823.29682-1.02823.65957 0 .36272.27929.65953.62064.65953.34131 0 .80403-.29681 1.02822-.65953zm-16.81827-3.29772c0-.36275-.29681-.65952-.65957-.65952-.36273 0-.65952.29677-.65952.65952 0 .36276.29679.65953.65952.65953.36276 0 .65957-.29677.65957-.65953zm6.59538 0c0-.36275-.29677-.65952-.65951-.65952-.36278 0-.65957.29677-.65957.65952 0 .36276.29679.65953.65957.65953.36274 0 .65951-.29677.65951-.65953zm6.59542 0c0-.36275-.29678-.65952-.65955-.65952-.36273 0-.65951.29677-.65951.65952 0 .36276.29678.65953.65951.65953.36277 0 .65955-.29677.65955-.65953zm6.92521 0c.22405-.36275-.0725-.65952-.65959-.65952-.58691 0-.88371.29677-.65953.65952.22405.36276.52099.65953.65953.65953.13866 0 .43537-.29677.65959-.65953zm-57.70986-5.30526c0-2.80232-.18187-3.29606-1.15421-3.13281-.67237.11283-1.15421-.2191-1.15421-.79552 0-.57632.48184-.9084 1.15421-.7955.99997.16798 1.15421-.37464 1.15421-4.06038 0-4.01845-.078-4.2338-1.40737-3.88615-1.01797.26619-1.31769.11219-1.08324-.5564.17816-.50846.81162-.88323 1.40739-.83283.89958.0759 1.08322-.61227 1.08322-4.06042 0-3.82726-.10315-4.12498-1.31908-3.80702-.94443.24714-1.31909.0198-1.31909-.79819 0-.81845.37466-1.0452 1.31909-.79822 1.21838.31862 1.31908.0198 1.31908-3.90923 0-3.58828-.16996-4.22384-1.0858-4.06041-.59716.1067-1.23048-.22208-1.40737-.73063-.23249-.66821.0684-.82241 1.0858-.55639 1.32939.34764 1.40737.1322 1.40737-3.88616 0-3.68575-.15432-4.22829-1.15421-4.06039-.67237.11284-1.15421-.21909-1.15421-.79551 0-.57632.48184-.90841 1.15421-.79551.99997.16797 1.15421-.37465 1.15421-4.06035 0-4.01847-.078-4.23382-1.40737-3.88618-1.01727.26603-1.31824.1117-1.0858-.55641.1769-.50844.81021-.83722 1.40737-.73064.91581.16352 1.0858-.47211 1.0858-4.06038 0-3.92947-.10073-4.22786-1.31908-3.90925-.94443.24714-1.31909.0198-1.31909-.79819 0-.81845.37466-1.04519 1.31909-.79819 1.21592.31795 1.31908.0198 1.31908-3.80708 0-3.44809-.18362-4.13643-1.08322-4.06036-.59577.0504-1.22909-.3244-1.40739-.83286-.23449-.66859.0652-.82259 1.08324-.55637 1.32939.34762 1.40737.1322 1.40737-3.88615 0-3.58827-.16996-4.22385-1.0858-4.06041-.59716.1067-1.23048-.22207-1.40737-.73063-.23249-.6682.0684-.82244 1.0858-.5564 1.33508.34914 1.40737.13753 1.40737-4.12527 0-4.26255-.0722-4.47438-1.40737-4.12524-1.01727.26602-1.31824.11186-1.0858-.55642.1769-.50845.81021-.83721 1.40737-.73061.88785.15851 1.0858-.4012 1.0858-3.06989 0-3.2471-.0174-3.27365-3.46259-5.23482-1.90443-1.08416-7.89874-4.52559-13.32068-7.64769-5.42193-3.12209-10.09644-5.67649-10.38777-5.67649-.29132 0-.52967 1.52544-.52967 3.38988 0 2.46493.3149 3.6218 1.15417 4.23989 1.09925.80959 1.09925.87135 0 1.29747-1.54591.5993-1.68578 7.21616-.16474 7.79979 1.28194.49192 1.28194 1.74011 0 1.74011-1.51437 0-1.3752 6.47984.16474 7.6769 1.09925.85439 1.09925.93984 0 1.79428-.80129.62281-1.15417 1.82275-1.15417 3.92445 0 2.17994.32305 3.22099 1.15417 3.71917 1.09925.65889 1.09925.73456 0 1.58946-.81303.6323-1.15417 1.82939-1.15417 4.0499 0 2.23866.3345 3.39865 1.15417 4.00232 1.09925.80955 1.09925.87134 0 1.29747-1.54591.59927-1.68578 7.21616-.16474 7.79976.54412.20893.9893.68575.9893 1.05987 0 .37416-.44518.68026-.9893.68026-1.51432 0-1.37516 6.4797.16474 7.67738 1.09925.85487 1.09925.93054 0 1.58945-.84809.50836-1.15417 1.54899-1.15417 3.92398 0 2.37499.30608 3.41565 1.15417 3.924 1.09925.65887 1.09925.73455 0 1.58943-.81303.63234-1.15417 1.82938-1.15417 4.04992 0 2.23867.3345 3.39863 1.15417 4.00232 1.09925.80956 1.09925.87132 0 1.29747-.89722.3478-1.15417 1.22359-1.15417 3.9338 0 2.71016.25695 3.58594 1.15417 3.93378 1.09925.42614 1.09925.4879 0 1.29746-.73006.53769-1.15417 1.72723-1.15417 3.2372 0 2.11518.2962 2.53831 2.59999 3.71358 1.43001.72954 3.06236 1.14903 3.62746.93216.66053-.25346 1.02748-.0255 1.02748.63781 0 1.32978 5.62745 4.64487 6.99437 4.12033.66927-.25683 1.15324.0248 1.35257.78693.1707.65277 1.65764 2.00066 3.30432 2.99524 2.32289 1.40311 3.19804 1.63904 3.90466 1.05259.7217-.59893 1.0411-.413 1.5386.89551.56722 1.49193 1.47235 2.2515 2.8566 2.3972.27206.0285.49466-1.44492.49466-3.27457zm-7.84257-3.51188c-.58798-.70849-.60013-1.07932-.0466-1.42147 1.07566-.6648 2.41011.81193 1.52949 1.69253-.47695.47697-.93109.39395-1.483-.27106zm-8.37606-4.62163c-.55876-1.45614.1846-2.1995 1.1921-1.19204.5948.59484.59735.96355.01 1.5503-.58675.58674-.87279.50154-1.20271-.35826zm5.34284.25871c-.48642-.78709.13075-1.9894 1.02159-1.9894.80253 0 .80773 1.78514.008 2.28025-.33768.20867-.80037.0776-1.02823-.29085zm5.92922-.01c-.26326-.42596-.18163-1.07127.18089-1.434.43968-.43971.81908-.40139 1.13818.11493.26326.42596.18187 1.07125-.18089 1.43402-.43968.43968-.81909.40137-1.13818-.11494zm-20.11599-5.60609c0-.54415.44518-.9893.9893-.9893.54412 0 .98933.44515.98933.9893 0 .54413-.44521.9893-.98933.9893s-.9893-.44517-.9893-.9893zm5.63427.37534c-.48776-.78919.75293-1.57119 1.63143-1.02824.7376.45585.25338 1.6422-.6703 1.6422-.31992 0-.75243-.27629-.96113-.61396zm5.70434-.0951c.12978-.38996.51829-.70899.86288-.70899.34463 0 .73291.31903.8629.70899.12979.38994-.25829.70899-.8629.70899-.60456 0-.99287-.31905-.86288-.70899zm5.50783.0951c-.20869-.33768-.0776-.80037.29085-1.02824.7871-.48642 1.9894.13108 1.9894 1.02159 0 .80253-1.78514.80775-2.28025.008zm-14.05713-4.78604c.40765-1.22291 1.82747-1.42575 1.82747-.26106 0 .57435-.46991 1.04428-1.04426 1.04428-.57437 0-.9268-.35243-.78321-.78322zm5.78471-.26106c0-1.16469 1.41984-.96185 1.8275.26106.14366.43079-.20893.78322-.78322.78322-.57434 0-1.04428-.46993-1.04428-1.04428zm5.42747.26106c.40762-1.22291 1.82748-1.42575 1.82748-.26106 0 .57435-.46993 1.04428-1.04426 1.04428-.57434 0-.9268-.35243-.78322-.78322zm5.78475-.26106c0-1.16469 1.4198-.96185 1.82746.26106.14367.43079-.20891.78322-.7832.78322-.57437 0-1.04426-.46993-1.04426-1.04428zm-19.78624-4.56181c0-.54412.44518-.98933.9893-.98933.54412 0 .98933.44521.98933.98933s-.44521.9893-.98933.9893-.9893-.44518-.9893-.9893zm5.63427.37534c-.48776-.78921.75293-1.57118 1.63143-1.02826.7376.45589.25338 1.64222-.6703 1.64222-.31992 0-.75243-.27629-.96113-.61396zm5.57792-.37534c0-.54412.44518-.98933.9893-.98933.54412 0 .98933.44521.98933.98933s-.44521.9893-.98933.9893-.9893-.44518-.9893-.9893zm5.63425.37534c-.48775-.78921.75297-1.57118 1.63148-1.02826.7376.45589.25335 1.64222-.67032 1.64222-.31993 0-.75244-.27629-.96116-.61396zm-13.7686-4.44252c-.75888-.75889-.48029-1.53892.54963-1.53892.54411 0 .98931.44518.98931.9893 0 1.02991-.78003 1.30851-1.53894.54962zm5.49618-.49466c0-.57433.46994-1.04426 1.04428-1.04426.57434 0 .92678.35246.78322.7832-.40766 1.22294-1.8275 1.42578-1.8275.26106zm5.73396.51258c-.52692-.52693.0688-1.55684.90038-1.55684.34132 0 .62061.44518.62061.9893 0 1.01992-.77822 1.3103-1.52099.56754zm5.47826-.51258c0-.57433.46989-1.04426 1.04426-1.04426.57434 0 .9268.35246.7832.7832-.40766 1.22294-1.82746 1.42578-1.82746.26106zm-19.78624-4.61678c0-.57434.46989-1.04427 1.04426-1.04427.57435 0 .9268.35243.78323.78322-.40767 1.22293-1.82749 1.42575-1.82749.26105zm5.63427.3204c-.48776-.78923.75293-1.57119 1.63143-1.02823.7376.45583.25338 1.6422-.6703 1.6422-.31992 0-.75243-.27629-.96113-.61397zm6.0176.17419c-.75888-.7589-.4803-1.53894.54962-1.53894.54412 0 .98933.4452.98933.9893 0 1.02993-.78005 1.30853-1.53895.54964zm5.19457-.17419c-.48775-.78923.75297-1.57119 1.63148-1.02823.7376.45583.25335 1.6422-.67032 1.6422-.31993 0-.75244-.27629-.96116-.61397zm-13.7686-4.44255c-.75888-.75887-.48029-1.53892.54963-1.53892.54411 0 .98931.4452.98931.98932 0 1.02993-.78003 1.3085-1.53894.5496zm5.49618-.49464c0-.57433.46994-1.04428 1.04428-1.04428.57434 0 .92678.35247.78322.78323-.40766 1.22291-1.8275 1.42575-1.8275.26105zm5.71603.49464c-.75891-.75887-.48031-1.53892.54959-1.53892.54415 0 .98933.4452.98933.98932 0 1.02993-.78003 1.3085-1.53892.5496zm5.91792-.0174c-.74277-.74277-.45235-1.52103.56754-1.52103.54415 0 .98933.27929.98933.62065 0 .83168-1.02991 1.42729-1.55687.90038zm-19.87822-4.81871c-.26326-.42597-.18163-1.07127.18089-1.43403.43971-.43971.81908-.40137 1.13818.11493.26326.42596.18187 1.07126-.18089 1.43399-.4397.4397-.81909.40138-1.1382-.11494zm5.40002.2335c-.86014-.8601-.4495-1.55265.9206-1.55265.76752 0 1.25882.3457 1.11299.78319-.32129.96381-1.42255 1.38052-2.03359.76946zm5.8122-.2335c-.26326-.42597-.18187-1.07127.18089-1.43403.43971-.43971.81911-.40137 1.1382.11493.26327.42596.18188 1.07126-.18088 1.43399-.43968.4397-.8191.40138-1.13818-.11494zm5.3225.0747c-.19874-.32167.0541-.92966.56189-1.35114 1.02806-.85318 2.08078.12703 1.37055 1.2764-.50468.81656-1.45132.85319-1.93244.0747zm3.25152-4.69154c-.26326-.42596-.18163-1.07126.18089-1.43402.43968-.43967.81908-.40137 1.13818.11494.26326.42595.18187 1.07125-.18089 1.43398-.43968.43971-.81909.40141-1.13818-.11493zm-17.32668-.78321c.40765-1.22295 1.82747-1.42579 1.82747-.26105 0 .57433-.46991 1.04426-1.04426 1.04426-.57437 0-.9268-.35245-.78321-.78321zm5.91112.0743c.1301-.38995.51829-.70901.86291-.70901.3446 0 .73291.31906.86289.70901.12994.38993-.25832.70899-.86289.70899-.60458 0-.99287-.31906-.86291-.70899zm5.27633 0c.12995-.38995.51829-.70901.86288-.70901.34465 0 .73294.31906.86294.70901.12978.38993-.25832.70899-.86294.70899-.60455 0-.99285-.31906-.86288-.70899zm-13.64701-3.90778c-.26326-.42596-.18163-1.07126.18089-1.43403.43971-.43968.81908-.40135 1.13818.11493.26326.42596.18187 1.07129-.18089 1.43403-.4397.4397-.81909.4014-1.1382-.11493zm11.21222 0c-.26326-.42596-.18187-1.07126.18089-1.43403.43971-.43968.81911-.40135 1.1382.11493.26327.42596.18188 1.07129-.18088 1.43403-.43968.4397-.8191.4014-1.13818-.11493zm-6.12176-.76145c.34234-1.02698 1.81787-1.20682 1.86958-.22778.0198.36276-.46023.7621-1.06529.88743-.6877.14269-.9892-.10477-.80429-.65955zm11.42623.1477c-.20869-.33769-.0776-.80041.29085-1.02824.7871-.48646 1.9894.13075 1.9894 1.02159 0 .80254-1.78514.80775-2.28025.008zM8.72517 95.50625c.40765-1.22291 1.82747-1.42574 1.82747-.26105 0 .57435-.46991 1.04428-1.04426 1.04428-.57437 0-.9268-.35243-.78321-.78323zm5.78471-.26105c0-.57437.35246-.92678.7832-.78322 1.22294.40766 1.42578 1.8275.26108 1.8275-.57434 0-1.04428-.46993-1.04428-1.04428zm5.42747.26105c.40762-1.22291 1.82748-1.42574 1.82748-.26105 0 .57435-.46993 1.04428-1.04426 1.04428-.57434 0-.9268-.35243-.78322-.78323zm5.78475-.26105c0-1.16469 1.4198-.96186 1.82746.26105.14367.4308-.20891.78323-.7832.78323-.57437 0-1.04426-.46993-1.04426-1.04428zM5.93586 90.68338c0-.54412.44518-.98934.9893-.98934.54412 0 .98933.44522.98933.98934 0 .5441-.44521.9893-.98933.9893s-.9893-.4452-.9893-.9893zm5.63427.37533c-.48776-.78922.75293-1.57119 1.63143-1.02824.7376.45589.25338 1.64221-.6703 1.64221-.31992 0-.75243-.27628-.96113-.61397zm5.57792-.37533c0-.54412.44518-.98934.9893-.98934.54412 0 .98933.44522.98933.98934 0 .5441-.44521.9893-.98933.9893s-.9893-.4452-.9893-.9893zm5.63425.37533c-.48775-.78922.75297-1.57119 1.63148-1.02824.7376.45589.25335 1.64221-.67032 1.64221-.31993 0-.75244-.27628-.96116-.61397zm-13.7686-4.4425c-.75888-.75889-.48029-1.53892.54963-1.53892.54411 0 .98931.44515.98931.98927 0 1.02994-.78003 1.30854-1.53894.54965zm5.49618-.49466c0-.57435.46994-1.04426 1.04428-1.04426.57434 0 .92678.35243.78322.78318-.40766 1.22294-1.8275 1.42579-1.8275.26108zm5.71603.49466c-.75891-.75889-.48031-1.53892.54959-1.53892.54415 0 .98933.44515.98933.98927 0 1.02994-.78003 1.30854-1.53892.54965zm5.49619-.49466c0-.57435.46989-1.04426 1.04426-1.04426.57434 0 .9268.35243.7832.78318-.40766 1.22294-1.82746 1.42579-1.82746.26108zM5.93586 81.4498c0-.54413.44518-.9893.9893-.9893.54412 0 .98933.44517.98933.9893 0 .54412-.44521.9893-.98933.9893s-.9893-.44518-.9893-.9893zm5.63427.37534c-.48776-.7892.75293-1.57118 1.63143-1.02824.7376.45588.25338 1.6422-.6703 1.6422-.31992 0-.75243-.27628-.96113-.61396zm5.57792-.37534c0-.54413.44518-.9893.9893-.9893.54412 0 .98933.44517.98933.9893 0 .54412-.44521.9893-.98933.9893s-.9893-.44518-.9893-.9893zm5.63425.37534c-.48775-.7892.75297-1.57118 1.63148-1.02824.7376.45588.25335 1.6422-.67032 1.6422-.31993 0-.75244-.27628-.96116-.61396zM9.0137 77.38263c-.75888-.75888-.48029-1.53893.54963-1.53893.54411 0 .98931.4452.98931.98932 0 1.0299-.78003 1.3085-1.53894.54961zm5.49618-.49465c0-.57436.46994-1.04428 1.04428-1.04428 1.1647 0 .96186 1.41984-.26108 1.82747-.43074.14366-.7832-.20893-.7832-.78319zm5.71603.49465c-.75891-.75888-.48031-1.53893.54959-1.53893.54415 0 .98933.4452.98933.98932 0 1.0299-.78003 1.3085-1.53892.54961zm5.49619-.49465c0-.57436.46989-1.04428 1.04426-1.04428.57434 0 .9268.35243.7832.7832-.40766 1.22294-1.82746 1.42577-1.82746.26108zM6.35758 72.74792c-.74276-.74276-.45234-1.521.56758-1.521.54412 0 .98933.27929.98933.62061 0 .83166-1.02994 1.42732-1.55691.90039zm5.18148-.20668c-.2258-.36531.0662-.84715.64907-1.07078 1.26279-.48461 1.96656.0494 1.35957 1.03155-.54767.88616-1.474.90423-2.00864.0392zm6.03075.20668c-.74277-.74276-.45235-1.521.56754-1.521.54412 0 .98933.27929.98933.62061 0 .83166-1.02994 1.42732-1.55687.90039zm5.18147-.20668c-.2258-.36531.0662-.84715.64905-1.07078 1.26278-.48461 1.96658.0494 1.35956 1.03155-.54768.88616-1.47402.90423-2.00861.0392zM8.90379 67.92911c-.26326-.42598-.18187-1.07128.18087-1.434.43972-.43972.8191-.4014 1.13822.11493.26326.42595.18187 1.07125-.18089 1.43401-.43968.43968-.81907.40137-1.13818-.11493zm5.93584 0c-.26323-.42598-.18163-1.07128.18089-1.434.43971-.43972.81908-.4014 1.13819.11493.26328.42595.18189 1.07125-.18087 1.43401-.43968.43968-.81907.40137-1.13821-.11493zm5.27635 0c-.26326-.42598-.18163-1.07128.18089-1.434.43968-.43972.81908-.4014 1.13818.11493.26326.42595.18187 1.07125-.18089 1.43401-.43968.43968-.81908.40137-1.13818-.11493zm5.93587 0c-.26326-.42598-.18163-1.07128.18089-1.434.43968-.43972.81908-.4014 1.13818.11493.26326.42595.18187 1.07125-.18089 1.43401-.43968.43968-.81909.40137-1.13818-.11493zM6.06227 62.60332c.12994-.38996.51829-.709.86289-.709.34462 0 .73292.31904.86291.709.12978.38995-.25833.709-.86291.709-.60456 0-.99288-.31905-.86289-.709zm5.50786.0951c-.48776-.78919.75293-1.57119 1.63143-1.02824.7376.45586.25338 1.64221-.6703 1.64221-.31992 0-.75243-.27629-.96113-.61397zm5.70434-.0951c.12978-.38996.51829-.709.86288-.709.34463 0 .73291.31904.8629.709.12979.38995-.25829.709-.8629.709-.60456 0-.99287-.31905-.86288-.709zm5.50783.0951c-.20869-.33771-.0776-.8004.29085-1.02824.7871-.48642 1.9894.13076 1.9894 1.02159 0 .80254-1.78514.80775-2.28025.008zM8.72517 57.91239c.40765-1.22291 1.82747-1.42575 1.82747-.26109 0 .57437-.46991 1.0443-1.04426 1.0443-.57437 0-.9268-.35245-.78321-.78321zm5.78471-.26109c0-.57433.35246-.92676.7832-.78318 1.22294.40766 1.42578 1.82748.26108 1.82748-.57434 0-1.04428-.46993-1.04428-1.0443zm5.42747.26109c.40762-1.22291 1.82748-1.42575 1.82748-.26109 0 .57437-.46993 1.0443-1.04426 1.0443-.57434 0-.9268-.35245-.78322-.78321zm5.78475-.26109c0-.57433.35243-.92676.78318-.78318 1.22294.40766 1.42579 1.82748.26108 1.82748-.57437 0-1.04426-.46993-1.04426-1.0443zM5.93586 53.08952c0-.54412.44518-.98934.9893-.98934.54412 0 .98933.44522.98933.98934 0 .54411-.44521.9893-.98933.9893s-.9893-.44519-.9893-.9893zm5.63427.37532c-.48776-.78919.75293-1.57119 1.63143-1.02824.7376.45589.25338 1.64222-.6703 1.64222-.31992 0-.75243-.27629-.96113-.61398zm5.57792-.37532c0-.54412.44518-.98934.9893-.98934.54412 0 .98933.44522.98933.98934 0 .54411-.44521.9893-.98933.9893s-.9893-.44519-.9893-.9893zm5.63425.37532c-.48775-.78919.75297-1.57119 1.63148-1.02824.7376.45589.25335 1.64222-.67032 1.64222-.31993 0-.75244-.27629-.96116-.61398zM8.72517 48.67883c.40765-1.22294 1.82747-1.42578 1.82747-.26106 0 .57432-.46991 1.04426-1.04426 1.04426-.57437 0-.9268-.35246-.78321-.7832zm5.78471-.26106c0-.57435.35246-.92682.7832-.78324 1.22294.40768 1.42578 1.8275.26108 1.8275-.57434 0-1.04428-.46994-1.04428-1.04426zm-8.57402-4.56184c0-.54412.44518-.9893.9893-.9893.54412 0 .98933.44518.98933.9893 0 .54411-.44521.98933-.98933.98933s-.9893-.44522-.9893-.98933zm65.95408 109.19296c0-.34134-.29679-.80407-.65952-1.02822-.36276-.22407-.65955.055-.65955.6206 0 .56554.29679 1.02824.65955 1.02824.36273 0 .65952-.27929.65952-.62062zm6.59543-.40762c0-.56552-.2968-.84481-.65957-.6206-.36272.22406-.65951.68688-.65951 1.02822 0 .34133.29679.62062.65951.62062.36277 0 .65957-.4627.65957-1.02824zm6.89033-.34717c-.21239-.3436-.66719-.45097-1.01081-.23845-.34357.2124-.45096.66724-.23844 1.01084.21238.34361.66723.45099 1.01084.23845.3436-.2124.45096-.66724.23845-1.01082zm6.59546 0c-.2124-.3436-.66725-.45097-1.01085-.23845-.3436.2124-.451.66724-.23846 1.01084.2124.34361.66724.45099 1.01086.23845.34356-.2124.45096-.66724.23845-1.01082zm6.60205.76144c.20867-.33769.0776-.80041-.29085-1.02823-.36867-.22777-.67031.0484-.67031.61396 0 1.15849.39578 1.32908.96116.41427zm-30.33891-3.29772c.20867-.33767.078-.80037-.29083-1.02823-.36867-.22778-.67029.0484-.67029.61396 0 1.15854.39574 1.3291.96112.41427zm6.6923-1.186c-.67046-.67046-1.22363.3389-.67354 1.22896.41555.67235.57089.67286.79428.003.15287-.45821.0985-1.01245-.12058-1.23163zm13.74682.42458c-.21238-.3436-.66723-.45099-1.01083-.23845-.3436.2124-.45096.66723-.23845 1.0108.2124.3436.66721.451 1.01082.23845.3436-.2124.45099-.66725.23845-1.01081zm6.60207.76142c.20867-.33767.0777-.80037-.29085-1.02823-.36866-.22778-.6703.0484-.6703.61396 0 1.15854.39577 1.3291.96115.41427zm-13.49242-.70637c0-.36275-.29678-.65952-.65955-.65952-.36273 0-.65951.29677-.65951.65952 0 .36272.29678.65956.65951.65956.36277 0 .65955-.29684.65955-.65956zm20.44578 0c0-.36275-.29681-.65952-.65957-.65952-.36273 0-.65951.29677-.65951.65952 0 .36272.29678.65956.65951.65956.36276 0 .65957-.29684.65957-.65956zm-24.00458-3.77863c-.67041-.67042-1.22358.33895-.67351 1.22898.41553.67234.57086.67287.7943.003.15287-.45823.0985-1.01248-.1209-1.23164zm-6.33433.48092c0-.36272-.29679-.65954-.65952-.65954-.36276 0-.65955.29682-.65955.65954 0 .36276.29679.65955.65955.65955.36273 0 .65952-.29679.65952-.65955zm13.5206 0c-.22405-.36272-.68691-.65954-1.02822-.65954-.34135 0-.62064.29682-.62064.65954 0 .36276.46271.65955 1.02823.65955.56556 0 .84481-.29679.62063-.65955zm6.9252 0c0-.36272-.27929-.65954-.62063-.65954-.34136 0-.80405.29682-1.02823.65954-.22406.36276.055.65955.62063.65955.5655 0 1.02823-.29679 1.02823-.65955zm6.59539 0c0-.36272-.29677-.65954-.65952-.65954-.36277 0-.65956.29682-.65956.65954 0 .36276.29679.65955.65956.65955.36275 0 .65952-.29679.65952-.65955zm6.59542 0c0-.36272-.29679-.65954-.65955-.65954-.36273 0-.65952.29682-.65952.65954 0 .36276.29679.65955.65952.65955.36276 0 .65955-.29679.65955-.65955zm-36.93428-3.2977c0-.36274-.29681-.65953-.65957-.65953-.36273 0-.65952.29679-.65952.65953 0 .36275.29679.65954.65952.65954.36276 0 .65957-.29679.65957-.65954zm6.59538 0c0-.36274-.29677-.65953-.65951-.65953-.36278 0-.65957.29679-.65957.65953 0 .36275.29679.65954.65957.65954.36274 0 .65951-.29679.65951-.65954zm6.59542 0c0-.36274-.29678-.65953-.65955-.65953-.36273 0-.65951.29679-.65951.65953 0 .36275.29678.65954.65951.65954.36277 0 .65955-.29679.65955-.65954zm7.25496 0c0-.36274-.44522-.65953-.98934-.65953-.5441 0-.9893.29679-.9893.65953 0 .36275.4452.65954.9893.65954.54412 0 .98934-.29679.98934-.65954zm6.59538 0c0-.36274-.29677-.65953-.65952-.65953-.36276 0-.65955.29679-.65955.65953 0 .36275.29679.65954.65955.65954.36275 0 .65952-.29679.65952-.65954zm6.59544 0c0-.36274-.29681-.65953-.65957-.65953-.36273 0-.65951.29679-.65951.65953 0 .36275.29678.65954.65951.65954.36276 0 .65957-.29679.65957-.65954zm6.59538 0c0-.36274-.29677-.65953-.65951-.65953-.36276 0-.65957.29679-.65957.65953 0 .36275.29681.65954.65957.65954.36274 0 .65951-.29679.65951-.65954zm7.25499 0c0-.36274-.44522-.65953-.98932-.65953-.54412 0-.98932.29679-.98932.65953 0 .36275.4452.65954.98932.65954.5441 0 .98932-.29679.98932-.65954zm-44.18928-3.29768c0-.36276-.29679-.65955-.65952-.65955-.36276 0-.65955.29679-.65955.65955 0 .36273.29679.65955.65955.65955.36273 0 .65952-.29682.65952-.65955zm6.59543 0c0-.36276-.2968-.65955-.65957-.65955-.36272 0-.65951.29679-.65951.65955 0 .36273.29679.65955.65951.65955.36277 0 .65957-.29682.65957-.65955zm6.59542 0c0-.36276-.29681-.65955-.65955-.65955-.36276 0-.65956.29679-.65956.65955 0 .36273.2968.65955.65956.65955.36274 0 .65955-.29682.65955-.65955zm7.25495 0c0-.36276-.44521-.65955-.98933-.65955-.5441 0-.9893.29679-.9893.65955 0 .36273.4452.65955.9893.65955.54412 0 .98933-.29682.98933-.65955zm6.59539 0c0-.36276-.29677-.65955-.65952-.65955-.36277 0-.65956.29679-.65956.65955 0 .36273.29679.65955.65956.65955.36275 0 .65952-.29682.65952-.65955zm6.59542 0c0-.36276-.29679-.65955-.65955-.65955-.36273 0-.65952.29679-.65952.65955 0 .36273.29679.65955.65952.65955.36276 0 .65955-.29682.65955-.65955zm6.59542 0c0-.36276-.29682-.65955-.65955-.65955-.36276 0-.65955.29679-.65955.65955 0 .36273.29679.65955.65955.65955.36273 0 .65955-.29682.65955-.65955zm7.25492 0c0-.36276-.29677-.65955-.65952-.65955-.36276 0-.65953.29679-.65953.65955 0 .36273.29677.65955.65953.65955.36275 0 .65952-.29682.65952-.65955zm-28.13721-17.22672c14.73551-8.4813 26.79776-15.59046 26.805-15.79816.008-.20768-2.58378-1.86199-5.75783-3.67626-3.17406-1.81428-9.22846-5.30199-13.45425-7.75047L91.1493 90.255l-26.61285 15.32528c-14.63707 8.42895-27.00886 15.68371-27.49287 16.12169-.70745.64021 1.68497 2.29323 12.20153 8.43063 7.19484 4.19883 13.55878 7.54095 14.14209 7.4269.58334-.1138 13.11697-7.14658 27.85248-15.62786zm-16.05203 13.92902c0-.36273-.29677-.65957-.65951-.65957-.36278 0-.65957.29684-.65957.65957 0 .36274.29679.65955.65957.65955.36274 0 .65951-.29681.65951-.65955zm6.59542 0c0-.36273-.29678-.65957-.65955-.65957-.36273 0-.65951.29684-.65951.65957 0 .36274.29678.65955.65951.65955.36277 0 .65955-.29681.65955-.65955zm7.25496 0c0-.36273-.44522-.65957-.98934-.65957-.5441 0-.9893.29684-.9893.65957 0 .36274.4452.65955.9893.65955.54412 0 .98934-.29681.98934-.65955zm6.59538 0c0-.36273-.29677-.65957-.65952-.65957-.36276 0-.65955.29684-.65955.65957 0 .36274.29679.65955.65955.65955.36275 0 .65952-.29681.65952-.65955zm6.59544 0c0-.36273-.29681-.65957-.65957-.65957-.36273 0-.65951.29684-.65951.65957 0 .36274.29678.65955.65951.65955.36276 0 .65957-.29681.65957-.65955zm6.59538 0c0-.36273-.29677-.65957-.65951-.65957-.36276 0-.65957.29684-.65957.65957 0 .36274.29681.65955.65957.65955.36274 0 .65951-.29681.65951-.65955zm6.92519 0c-.22407-.36273-.68686-.65957-1.02824-.65957-.34132 0-.6206.29684-.6206.65957 0 .36274.46272.65955 1.02824.65955.56551 0 .8448-.29681.6206-.65955zm6.92519 0c0-.36273-.29677-.65957-.65952-.65957-.36278 0-.65957.29684-.65957.65957 0 .36274.29679.65955.65957.65955.36275 0 .65952-.29681.65952-.65955zm-37.26407-3.29772c.22407-.36273-.055-.65952-.62063-.65952-.56552 0-1.02823.29679-1.02823.65952 0 .36276.27929.65955.62064.65955.34131 0 .80403-.29679 1.02822-.65955zm6.9252 0c0-.36273-.46273-.65952-1.02823-.65952-.56556 0-.84481.29679-.62063.65952.22405.36276.68687.65955 1.02823.65955.34134 0 .62063-.29679.62063-.65955zm6.59539 0c0-.36273-.29677-.65952-.65952-.65952-.36277 0-.65956.29679-.65956.65952 0 .36276.29679.65955.65956.65955.36275 0 .65952-.29679.65952-.65955zm6.59542 0c0-.36273-.29679-.65952-.65955-.65952-.36273 0-.65952.29679-.65952.65952 0 .36276.29679.65955.65952.65955.36276 0 .65955-.29679.65955-.65955zm6.59542 0c0-.36273-.29682-.65952-.65955-.65952-.36276 0-.65955.29679-.65955.65952 0 .36276.29679.65955.65955.65955.36273 0 .65955-.29679.65955-.65955zm7.25492 0c0-.36273-.29677-.65952-.65952-.65952-.36276 0-.65953.29679-.65953.65952 0 .36276.29677.65955.65953.65955.36275 0 .65952-.29679.65952-.65955zm6.59543 0c0-.36273-.2968-.65952-.65956-.65952-.36273 0-.65952.29679-.65952.65952 0 .36276.29679.65955.65952.65955.36276 0 .65956-.29679.65956-.65955zm6.59541 0c0-.36273-.29679-.65952-.65954-.65952-.36277 0-.65956.29679-.65956.65952 0 .36276.29679.65955.65956.65955.36275 0 .65954-.29679.65954-.65955zm-43.5297-3.29744c0-.36273-.44522-.65952-.98934-.65952-.5441 0-.9893.29679-.9893.65952 0 .36276.4452.65957.9893.65957.54412 0 .98934-.29681.98934-.65957zm6.59538.0389c0-.34136-.29677-.80409-.65952-1.02824-.36276-.22406-.65955.055-.65955.6206 0 .56554.29679 1.02824.65955 1.02824.36275 0 .65952-.27929.65952-.6206zm6.59544-.0389c0-.36273-.29681-.65952-.65957-.65952-.36273 0-.65951.29679-.65951.65952 0 .36276.29678.65957.65951.65957.36276 0 .65957-.29681.65957-.65957zm6.59538 0c0-.36273-.29677-.65952-.65951-.65952-.36276 0-.65957.29679-.65957.65952 0 .36276.29681.65957.65957.65957.36274 0 .65951-.29681.65951-.65957zm6.92519 0c.22405-.36273-.0725-.65952-.65952-.65952-.58694 0-.88373.29679-.65955.65952.22405.36276.52099.65957.65955.65957.1385 0 .43535-.29681.65952-.65957zm6.92519 0c0-.36273-.29677-.65952-.65952-.65952-.36278 0-.65957.29679-.65957.65952 0 .36276.29679.65957.65957.65957.36275 0 .65952-.29681.65952-.65957zm6.59542 0c0-.36273-.29681-.65952-.65955-.65952-.36273 0-.65952.29679-.65952.65952 0 .36276.29679.65957.65952.65957.36274 0 .65955-.29681.65955-.65957zm6.59541 0c0-.36273-.29681-.65952-.65955-.65952-.36276 0-.65955.29679-.65955.65952 0 .36276.29679.65957.65955.65957.36274 0 .65955-.29681.65955-.65957zm-43.85949-3.29767c.22404-.36276.0933-.65957-.29084-.65957-.38415 0-.69845.29681-.69845.65957 0 .36275.13075.65952.29085.65952.16013 0 .47427-.29677.69844-.65952zm6.56726.0457c.20867-.33771.0776-.8004-.29085-1.02824-.36867-.22778-.67031.0484-.67031.61395 0 1.15851.39578 1.3291.96116.41429zm6.95334-.0457c0-.36276-.29679-.65957-.65955-.65957-.36273 0-.65952.29681-.65952.65957 0 .36275.29679.65952.65952.65952.36276 0 .65955-.29677.65955-.65952zm6.59542-.36872c0-.56552-.30165-.84181-.6703-.61396-.36869.22778-.49955.69054-.29085 1.02823.56538.91483.96115.74424.96115-.41427zm6.89035-.34715c-.2124-.3436-.6672-.45099-1.01082-.23845-.3436.2124-.45099.66725-.23845 1.01082.2124.34362.66725.45099 1.01085.23871.3436-.2124.45096-.66725.23869-1.01082zm6.96.71587c0-.36276-.2968-.65957-.65956-.65957-.36273 0-.65952.29681-.65952.65957 0 .36275.29679.65952.65952.65952.36276 0 .65956-.29677.65956-.65952zm6.59541 0c0-.36276-.29679-.65957-.65954-.65957-.36277 0-.65956.29681-.65956.65957 0 .36275.29679.65952.65956.65952.36275 0 .65954-.29677.65954-.65952zm6.5954-.36872c0-.56552-.29677-.84481-.65953-.62061-.36275.22407-.65952.68693-.65952 1.02823 0 .34133.29677.62062.65952.62062.36276 0 .65953-.4627.65953-1.02824zm-37.29225-2.88344c.20867-.33765.0776-.80036-.29083-1.02824-.36866-.22778-.67028.0484-.67028.61396 0 1.15854.39573 1.3291.96111.41428zm6.95335-.41428c0-.56552-.30163-.84179-.67028-.61396-.36868.22778-.49955.69059-.29085 1.02824.56538.91482.96113.74426.96113-.41428zm6.8904-.34714c-.21239-.3436-.66724-.451-1.01084-.23846-.3436.2124-.451.66724-.23846 1.01082.2124.3436.66724.45098 1.01082.23845.3436-.21239.45099-.66723.23869-1.01083zm27.04117 0c-.2124-.3436-.66721-.451-1.01082-.23846-.3436.2124-.45099.66724-.23844 1.01082.21238.3436.66724.45098 1.01084.23845.3436-.21239.45096-.66723.23869-1.01083zm6.60203.76142c.20869-.33765.0776-.80036-.29081-1.02824-.36867-.22778-.6703.0484-.6703.61396 0 1.15854.39573 1.3291.96111.41428zm-26.68322-.7051c0-.36274-.29677-.65954-.65952-.65954-.36278 0-.65957.2968-.65957.65954 0 .36276.29679.65954.65957.65954.36275 0 .65952-.29678.65952-.65954zm6.59542 0c0-.36274-.29681-.65954-.65955-.65954-.36273 0-.65952.2968-.65952.65954 0 .36276.29679.65954.65952.65954.36274 0 .65955-.29678.65955-.65954zm6.59541 0c0-.36274-.29681-.65954-.65955-.65954-.36276 0-.65955.2968-.65955.65954 0 .36276.29679.65954.65955.65954.36274 0 .65955-.29678.65955-.65954zm-30.33889-3.29769c0-.36276-.29679-.65955-.65955-.65955-.36273 0-.65952.29679-.65952.65955 0 .36273.29679.65952.65952.65952.36276 0 .65955-.29679.65955-.65952zm6.59542 0c0-.36276-.29682-.65955-.65955-.65955-.36276 0-.65955.29679-.65955.65955 0 .36273.29679.65952.65955.65952.36273 0 .65955-.29679.65955-.65952zm7.25492 0c0-.36276-.27926-.65955-.62062-.65955-.3413 0-.80402.29679-1.02822.65955-.22407.36273.055.65952.6206.65952.56554 0 1.02824-.29679 1.02824-.65952zm6.59543 0c0-.36276-.2968-.65955-.65956-.65955-.36273 0-.65952.29679-.65952.65955 0 .36273.29679.65952.65952.65952.36276 0 .65956-.29679.65956-.65952zm6.59541 0c0-.36276-.29679-.65955-.65954-.65955-.36277 0-.65956.29679-.65956.65955 0 .36273.29679.65952.65956.65952.36275 0 .65954-.29679.65954-.65952zm6.5954 0c0-.36276-.29677-.65955-.65953-.65955-.36275 0-.65952.29679-.65952.65955 0 .36273.29677.65952.65952.65952.36276 0 .65953-.29679.65953-.65952zm7.25495.36868c0-.15996-.29677-.47428-.65953-.69846-.36276-.22406-.65955-.0933-.65955.29083 0 .38416.29679.69847.65955.69847.36276 0 .65953-.13075.65953-.29084zm-30.66866-3.6664c-.22407-.36276-.68686-.65955-1.02824-.65955-.34132 0-.6206.29679-.6206.65955 0 .36273.46272.65953 1.02824.65953.56551 0 .8448-.2968.6206-.65953zm6.92519 0c0-.36276-.29677-.65955-.65952-.65955-.36278 0-.65957.29679-.65957.65955 0 .36273.29679.65953.65957.65953.36275 0 .65952-.2968.65952-.65953zm6.59542 0c0-.36276-.29681-.65955-.65955-.65955-.36273 0-.65952.29679-.65952.65955 0 .36273.29679.65953.65952.65953.36274 0 .65955-.2968.65955-.65953zm6.59541 0c0-.36276-.29681-.65955-.65955-.65955-.36276 0-.65955.29679-.65955.65955 0 .36273.29679.65953.65955.65953.36274 0 .65955-.2968.65955-.65953zm6.92518 0c-.22406-.36276-.68692-.65955-1.02824-.65955-.34132 0-.62062.29679-.62062.65955 0 .36273.46272.65953 1.02824.65953s.84481-.2968.62062-.65953zm6.9252 0c0-.36276-.29683-.65955-.65959-.65955-.36272 0-.65951.29679-.65951.65955 0 .36273.29679.65953.65951.65953.36276 0 .65959-.2968.65959-.65953zm-111.46246-3.2977c0-.36273-.44519-.65953-.9893-.65953-.54412 0-.98932.2968-.98932.65953 0 .36275.4452.65955.98932.65955.54411 0 .9893-.2968.9893-.65955zm6.59543 0c0-.36273-.29681-.65953-.65957-.65953-.36274 0-.65951.2968-.65951.65953 0 .36275.29677.65955.65951.65955.36276 0 .65957-.2968.65957-.65955zm74.5281 0c0-.36273-.29677-.65953-.65952-.65953-.36276 0-.65953.2968-.65953.65953 0 .36275.29677.65955.65953.65955.36275 0 .65952-.2968.65952-.65955zm6.59543 0c0-.36273-.2968-.65953-.65956-.65953-.36273 0-.65952.2968-.65952.65953 0 .36275.29679.65955.65952.65955.36276 0 .65956-.2968.65956-.65955zm6.59541 0c0-.36273-.29679-.65953-.65954-.65953-.36277 0-.65956.2968-.65956.65953 0 .36275.29679.65955.65956.65955.36275 0 .65954-.2968.65954-.65955zm6.5954 0c0-.36273-.29677-.65953-.65953-.65953-.36275 0-.65952.2968-.65952.65953 0 .36275.29677.65955.65952.65955.36276 0 .65953-.2968.65953-.65955zm7.25495 0c0-.36273-.29677-.65953-.65953-.65953-.36276 0-.65955.2968-.65955.65953 0 .36275.29679.65955.65955.65955.36276 0 .65953-.2968.65953-.65955zm-104.86701-3.29772c0-.36272-.29678-.65951-.65955-.65951-.36276 0-.65953.29679-.65953.65951 0 .36276.29677.65955.65953.65955.36277 0 .65955-.29679.65955-.65955zm6.59539 0c0-.36272-.29679-.65951-.65952-.65951s-.65955.29679-.65955.65951c0 .36276.29682.65955.65955.65955s.65952-.29679.65952-.65955zm74.52815 0c0-.36272-.29677-.65951-.65952-.65951-.36278 0-.65957.29679-.65957.65951 0 .36276.29679.65955.65957.65955.36275 0 .65952-.29679.65952-.65955zm6.59542 0c0-.36272-.29681-.65951-.65955-.65951-.36273 0-.65952.29679-.65952.65951 0 .36276.29679.65955.65952.65955.36274 0 .65955-.29679.65955-.65955zm6.59541 0c0-.36272-.29681-.65951-.65955-.65951-.36276 0-.65955.29679-.65955.65951 0 .36276.29679.65955.65955.65955.36274 0 .65955-.29679.65955-.65955zm6.92518 0c.22404-.36272-.055-.65951-.62062-.65951-.56552 0-1.02824.29679-1.02824.65951 0 .36276.2793.65955.62062.65955.34132 0 .80402-.29679 1.02824-.65955zm6.9252 0c0-.36272-.29683-.65951-.65959-.65951-.36272 0-.65951.29679-.65951.65951 0 .36276.29679.65955.65951.65955.36276 0 .65959-.29679.65959-.65955zm-111.46246-3.29768c0-.36276-.46272-.65955-1.02824-.65955-.56554 0-.8448.29679-.62062.65955.22406.36272.6869.65953 1.02824.65953.34134 0 .62062-.29681.62062-.65953zm6.59543 0c0-.36276-.29681-.65955-.65957-.65955-.36274 0-.65951.29679-.65951.65955 0 .36272.29677.65953.65951.65953.36276 0 .65957-.29681.65957-.65953zm6.59539 0c0-.36276-.29679-.65955-.65952-.65955-.36278 0-.65957.29679-.65957.65955 0 .36272.29679.65953.65957.65953.36273 0 .65952-.29681.65952-.65953zm6.59542 0c0-.36276-.29679-.65955-.65955-.65955-.36273 0-.65952.29679-.65952.65955 0 .36272.29679.65953.65952.65953.36276 0 .65955-.29681.65955-.65953zm74.52813 0c0-.36276-.29679-.65955-.65954-.65955-.36277 0-.65956.29679-.65956.65955 0 .36272.29679.65953.65956.65953.36275 0 .65954-.29681.65954-.65953zm6.92517 0c.22405-.36276-.055-.65955-.6206-.65955-.56552 0-1.02822.29679-1.02822.65955 0 .36272.27926.65953.62058.65953.34137 0 .80407-.29681 1.02824-.65953zm6.59543 0c.22405-.36276.0933-.65955-.29085-.65955-.38418 0-.69848.29679-.69848.65955 0 .36272.13075.65953.29086.65953.15997 0 .47426-.29681.69847-.65953zm-104.53726-3.29771c0-.36276-.46271-.65956-1.02823-.65956s-.84482.2968-.62062.65956c.22405.36274.6869.65952 1.02824.65952.34132 0 .62061-.29678.62061-.65952zm6.59539 0c0-.36276-.29679-.65956-.65952-.65956s-.65955.2968-.65955.65956c0 .36274.29682.65952.65955.65952s.65952-.29678.65952-.65952zm6.59543 0c0-.36276-.2968-.65956-.65956-.65956-.36273 0-.65952.2968-.65952.65956 0 .36274.29679.65952.65952.65952.36276 0 .65956-.29678.65956-.65952zm6.59542 0c0-.36276-.31433-.65956-.69848-.65956-.38417 0-.51503.2968-.29085.65956.22406.36274.53852.65952.69849.65952.15997 0 .29084-.29678.29084-.65952zm58.69915-.32981c0-.5441-.29681-.98927-.65957-.98927-.36273 0-.65952-.44518-.65952-.98933 0-.54412.29679-.9893.65952-.9893.36276 0 .65957-1.63236.65957-3.62749 0-1.99509-.29681-3.62746-.65957-3.62746-.36273 0-.65952-.44521-.65952-.9893 0-.54412.29679-.98934.65952-.98934.36276 0 .65957-1.63235.65957-3.62748 0-1.9951-.29681-3.62746-.65957-3.62746-.36273 0-.65952-.44521-.65952-.98933 0-.5441.29679-.9893.65952-.9893.99792 0 .78962-6.19392-.27742-8.25071-1.28825-2.48302-6.06785-5.3092-7.27899-4.30403-.9825.8154-2.05763-.14641-1.38326-1.23752.63979-1.03522-5.51977-4.05314-7.34002-3.59628-1.31137.32917-1.58309.18137-1.41112-.76728.24614-1.35678-6.16552-5.57884-6.58066-4.33345-.13269.39844-.68189.72443-1.22023.72443-.66066 0-.84985-.40633-.58205-1.25008.31143-.98121-.26612-1.62059-2.68529-2.97271-2.30485-1.28819-3.30117-1.54076-3.95092-1.00152-1.14845.95314-2.55354.12429-1.64503-.97038.49371-.59489-1.88589-2.27638-9.25048-6.53671-5.45335-3.15467-10.18996-5.73576-10.5258-5.73576-.33583 0-.61062 1.63239-.61062 3.62748 0 2.71869.23821 3.62749.9504 3.62749 1.5802 0 1.91981 1.38187.43504 1.77017-1.2057.31528-1.38544.85618-1.38544 4.16931 0 3.12823.1933 3.79073 1.08323 3.71546.59574-.0504 1.21408.27941 1.37402.73282.17244.48879-.26854.82443-1.08321.82443-1.24079 0-1.37404.38654-1.37404 3.98614 0 3.43048.16077 3.95918 1.15421 3.79238.67238-.11283 1.15419.2191 1.15419.7955 0 .59235-.48223.90717-1.20185.78457-.95561-.16276-1.1583.15949-.98933 1.57342.18609 1.55548 1.86442 2.72943 13.40337 9.37452 7.25495 4.17804 16.19963 9.33169 19.87704 11.45256 3.67741 2.12088 6.8381 3.85612 7.02376 3.85612.18585 0 1.88122 1.03878 3.76784 2.3084 1.88666 1.26961 3.99404 2.30839 4.68308 2.30839.68906 0 1.25281.26946 1.25281.59882 0 .58023 3.78207 3.19339 4.78168 3.30377.27207.0303.49466-.39052.49466-.93469zm-9.89311-6.59539c0-.5441.44517-.9893.98929-.9893.54413 0 .98933.4452.98933.9893 0 .54412-.4452.98934-.98933.98934-.54412 0-.98929-.44522-.98929-.98934zm5.63426.37537c-.48777-.78923.75293-1.57117 1.63144-1.02823.73762.45584.25337 1.6422-.67031 1.6422-.31992 0-.75243-.27631-.96113-.61397zm-14.20833-4.99213c0-.54412.44522-.98934.98934-.98934.54411 0 .98929.44522.98929.98934 0 .54409-.44518.9893-.98929.9893-.54412 0-.98934-.44521-.98934-.9893zm5.93587-.055c0-.57435.35246-.9268.78322-.78322 1.22294.40766 1.42578 1.82748.26108 1.82748-.57434 0-1.0443-.46989-1.0443-1.04426zm5.42749.26105c.40764-1.22293 1.82748-1.42578 1.82748-.26105 0 .57437-.46993 1.04426-1.04427 1.04426-.57435 0-.92681-.35243-.78321-.78321zm-19.47975-4.25533c-.52693-.52693.0688-1.55687.90039-1.55687.34132 0 .62061.44519.62061.98931 0 1.01994-.77824 1.31032-1.521.56756zm5.47824-.56756c0-.54412.4452-.98931.9893-.98931.54412 0 .98934.44519.98934.98931 0 .54413-.44522.98932-.98934.98932-.5441 0-.9893-.44519-.9893-.98932zm5.63427.37535c-.48776-.7892.75295-1.57117 1.63143-1.02823.73762.45587.25338 1.6422-.67028 1.6422-.31994 0-.75245-.27629-.96115-.61397zm5.57795-.37535c0-.54412.44517-.98931.98929-.98931.54413 0 .98933.44519.98933.98931 0 .54413-.4452.98932-.98933.98932-.54412 0-.98929-.44519-.98929-.98932zm5.63426.37535c-.48777-.7892.75293-1.57117 1.63144-1.02823.73762.45587.25337 1.6422-.67031 1.6422-.31992 0-.75243-.27629-.96113-.61397zm-30.99845-4.61676c-.48774-.78926.75295-1.5712 1.63147-1.02824.73759.45585.25338 1.64218-.67032 1.64218-.31991 0-.75245-.27628-.96115-.61394zm6.01763.17417c-.75886-.75889-.48033-1.53892.54962-1.53892.54412 0 .98933.44518.98933.9893 0 1.02994-.78005 1.30852-1.53895.54962zm5.19458-.17417c-.48777-.78926.75296-1.5712 1.63144-1.02824.73762.45585.25337 1.64218-.67031 1.64218-.31992 0-.75242-.27628-.96113-.61394zm6.01762.17417c-.75889-.75889-.48031-1.53892.54963-1.53892.54411 0 .98929.44518.98929.9893 0 1.02994-.78003 1.30852-1.53892.54962zm5.49616-.49466c0-.57433.46996-1.04426 1.0443-1.04426 1.1647 0 .96186 1.41982-.26108 1.82747-.43076.14367-.78322-.20892-.78322-.78321zm5.71603.49466c-.75889-.75889-.48029-1.53892.54962-1.53892.54412 0 .98932.44518.98932.9893 0 1.02994-.78002 1.30852-1.53894.54962zM76.50674 76.8869c0-.57437.46993-1.0443 1.04426-1.0443 1.16472 0 .96186 1.41983-.26105 1.82748-.43077.14367-.78321-.20893-.78321-.78318zm5.71601.49462c-.75889-.75885-.48029-1.53892.54965-1.53892.54411 0 .98928.4452.98928.9893 0 1.02993-.78004 1.30853-1.53893.54962zm5.49619-.49462c0-.57437.46993-1.0443 1.04428-1.0443 1.16469 0 .96186 1.41983-.26109 1.82748-.43076.14367-.78319-.20893-.78319-.78318zm5.71603.49462c-.75889-.75885-.48029-1.53892.54959-1.53892.54412 0 .98933.4452.98933.9893 0 1.02993-.78003 1.30853-1.53892.54962zm5.91794-.0174c-.74278-.74278-.4524-1.52099.56752-1.52099.54412 0 .98934.27929.98934.6206 0 .83171-1.02995 1.4273-1.55686.90039zm5.21249-.15626c-.48776-.7892.75295-1.57118 1.63143-1.02823.73762.45587.25338 1.64218-.67028 1.64218-.31994 0-.75245-.27625-.96115-.61395zm5.9997.15626c-.74277-.74278-.45237-1.52099.56754-1.52099.54413 0 .98933.27929.98933.6206 0 .83171-1.02995 1.4273-1.55687.90039zm5.21251-.15626c-.48777-.7892.75293-1.57118 1.63144-1.02823.73762.45587.25337 1.64218-.67031 1.64218-.31992 0-.75243-.27625-.96113-.61395zm-47.42315-4.46044c-.74276-.74277-.45238-1.52099.56758-1.52099.5441 0 .9893.27929.9893.62061 0 .83168-1.02995 1.4273-1.55688.90038zm5.15722-.2459c-.607-.98215.0969-1.51614 1.35957-1.03156.58276.22357.87484.70547.64908 1.07079-.53463.86502-1.46094.84691-2.00865-.0392zm6.05499.2459c-.74278-.74277-.45237-1.52099.56754-1.52099.5441 0 .98931.27929.98931.62061 0 .83168-1.02991 1.4273-1.55685.90038zm5.18146-.20669c-.22579-.36531.0662-.84715.64905-1.07078 1.26281-.48459 1.96657.0494 1.35958 1.03156-.54769.88612-1.47401.90424-2.00863.0392zm5.93875.005c-.26326-.42595-.18188-1.07128.18088-1.43403.4397-.43969.81909-.40137 1.13819.11494.26326.42597.18187 1.07126-.1809 1.434-.4397.4397-.81909.40138-1.13821-.11494zm5.6061-.27481c0-.57434.46991-1.04427 1.04426-1.04427 1.16469 0 .96186 1.41983-.26106 1.82748-.43079.14366-.7832-.20893-.7832-.78321zm5.6981.47672c-.74277-.74277-.45239-1.52099.56754-1.52099.54411 0 .98929.27929.98929.62061 0 .83168-1.02991 1.42731-1.55683.90038zm5.93586 0c-.74276-.74277-.45238-1.52099.56754-1.52099.54412 0 .9893.27929.9893.62061 0 .83168-1.02991 1.42731-1.55684.90038zm5.27631 0c-.74277-.74277-.45237-1.52099.56755-1.52099.54412 0 .98932.27929.98932.62061 0 .83168-1.02993 1.42731-1.55687.90038zm-42.3026-4.81871c-.26326-.42596-.18187-1.07125.18089-1.434.43971-.43969.8191-.40139 1.13821.11493.26326.42596.18187 1.07128-.18089 1.434-.43971.43971-.81908.40139-1.13818-.11493zm11.21218 0c-.26327-.42596-.18188-1.07125.18088-1.434.43968-.43969.81908-.40139 1.13818.11493.26326.42596.18187 1.07128-.18089 1.434-.43967.43971-.81908.40139-1.13819-.11493zm5.93586 0c-.26326-.42596-.18187-1.07125.18089-1.434.43968-.43969.8191-.40139 1.13818.11493.26326.42596.18187 1.07128-.18089 1.434-.43968.43971-.81908.40139-1.13819-.11493zm5.27634 0c-.26325-.42596-.18163-1.07125.18089-1.434.43969-.43969.81908-.40139 1.13819.11493.26325.42596.18163 1.07128-.18089 1.434-.43969.43971-.81908.40139-1.13819-.11493zm5.93587 0c-.26325-.42596-.18164-1.07125.18088-1.434.4397-.43969.81909-.40139 1.1382.11493.26325.42596.18187 1.07128-.18089 1.434-.43969.43971-.81908.40139-1.13819-.11493zm-22.62774-.70899c.12978-.38996.51829-.709.86289-.709.34462 0 .73292.31904.86288.709.12978.38996-.2583.70899-.86288.70899-.60457 0-.99288-.31903-.86289-.70899zm27.73918-.11542c.15109-.45341.67054-.82442 1.15421-.82442.48366 0 1.00305.37101 1.15417.82442.16353.49045-.3041.82443-1.15417.82443-.85008 0-1.31768-.33398-1.15421-.82443zm-36.31322-4.50135c.12979-.38993.51828-.70896.86292-.70896.34458 0 .73291.31903.86287.70896.1301.38998-.25832.70903-.86287.70903-.60459 0-.9929-.31905-.86292-.70903zm5.50785.0951c-.48776-.7892.75293-1.57118 1.63143-1.02824.7376.45587.25338 1.6422-.67026 1.6422-.31996 0-.75247-.27628-.96117-.61396zm5.70434-.0951c.12995-.38993.51829-.70896.8629-.70896.34461 0 .73293.31903.86292.70896.12978.38998-.25832.70903-.86292.70903-.60457 0-.99286-.31905-.8629-.70903zm5.80948-.28031c0-.60455.31903-.99285.70899-.86288.38996.12995.709.51828.709.86288 0 .34462-.31904.73295-.709.86294-.38996.12979-.70899-.25832-.70899-.86294zm5.40271.28031c.12978-.38993.51832-.70896.86291-.70896.34463 0 .73292.31903.86289.70896.12994.38998-.2583.70903-.86289.70903-.60457 0-.9929-.31905-.86291-.70903zm5.80948-.33524c0-.57437.35241-.9268.7832-.78322 1.22292.40766 1.42575 1.82749.26106 1.82749-.57435 0-1.04426-.46993-1.04426-1.04427zM70.72201 57.9122c.40765-1.22291 1.82749-1.42576 1.82749-.26107 0 .57435-.46993 1.04428-1.04428 1.04428-.57437 0-.92678-.35243-.78321-.78321zm5.78473-.26107c0-.57435.35244-.92678.78321-.7832 1.22291.40762 1.42577 1.82748.26105 1.82748-.57433 0-1.04426-.46993-1.04426-1.04428zm5.42749.26107c.40765-1.22291 1.82745-1.42576 1.82745-.26107 0 .57435-.4699 1.04428-1.04427 1.04428-.57434 0-.9268-.35243-.78318-.78321zm5.78471-.26107c0-.57435.35243-.92678.78319-.7832 1.22295.40762 1.42578 1.82748.26109 1.82748-.57435 0-1.04428-.46993-1.04428-1.04428zM67.9327 53.08932c0-.54413.44522-.98933.98934-.98933.5441 0 .9893.4452.9893.98933 0 .54412-.4452.98929-.9893.98929-.54412 0-.98934-.44517-.98934-.98929zm5.63427.37532c-.48776-.78918.75293-1.57119 1.63143-1.02823.7376.45588.25338 1.6422-.67026 1.6422-.31996 0-.75247-.27627-.96117-.61397zm5.57795-.37532c0-.54413.44517-.98933.98929-.98933.5441 0 .98931.4452.98931.98933 0 .54412-.44521.98929-.98931.98929-.54412 0-.98929-.44517-.98929-.98929zm-8.57405-4.6168c0-.54411.4452-.9893.98932-.9893.54409 0 .98931.44519.98931.9893 0 .54414-.44522.98932-.98931.98932-.54412 0-.98932-.44518-.98932-.98932zm5.93587 0c0-.60458.31906-.99288.70901-.8629.38998.12994.70901.5183.70901.8629 0 .34462-.31903.73292-.70901.86291-.38995.12978-.70901-.25832-.70901-.86291zM67.9327 43.9107c0-.57437.46993-1.04426 1.04428-1.04426 1.16472 0 .96186 1.41982-.26107 1.82746-.43074.14367-.78321-.20891-.78321-.7832zm67.93274 58.3144c0-.36276-.29681-.65957-.65955-.65957-.36276 0-.65955.29681-.65955.65957 0 .36273.29679.65951.65955.65951.36274 0 .65955-.29678.65955-.65951zm6.92518 0c.22404-.36276-.0725-.65957-.65955-.65957-.58695 0-.88372.29681-.65954.65957.22405.36273.52099.65951.65954.65951.13865 0 .43533-.29678.65955-.65951zm6.9252 0c0-.36276-.29683-.65957-.65959-.65957-.36272 0-.65951.29681-.65951.65957 0 .36273.29679.65951.65951.65951.36276 0 .65959-.29678.65959-.65951zm-73.34319-7.16717c5.87774-3.39782 10.68676-6.39856 10.68676-6.66826 0-.38386-19.70038-12.16136-21.90558-13.09582-.28535-.1209-.51881 5.76547-.51881 13.08088 0 7.31542.23646 13.2018.52544 13.08091.28901-.12091 5.33448-2.9999 11.21219-6.39771zm-38.48388 3.15358c-.21239-.3436-.6672-.45099-1.01078-.23845-.3436.2124-.451.66723-.2387 1.01085.21238.34357.66724.45093 1.01084.23844.3436-.21238.45096-.66724.23845-1.01084zm6.96004.38611c0-.54411-.29681-.98932-.65957-.98932-.36274 0-.65951.44521-.65951.98932s.29677.98931.65951.98931c.36276 0 .65957-.4452.65957-.98931zm6.59539 0c0-.54411-.29679-.98932-.65952-.98932-.36278 0-.65957.44521-.65957.98932s.29679.98931.65957.98931c.36273 0 .65952-.4452.65952-.98931zm6.59542-.0389c0-.56553-.30164-.84181-.67032-.61397-.36864.22778-.49955.69056-.29083 1.02824.56537.91482.96115.74423.96115-.41427zm67.93272.0389c0-.54411-.2968-.98932-.65956-.98932-.36273 0-.65952.44521-.65952.98932s.29679.98931.65952.98931c.36276 0 .65956-.4452.65956-.98931zm13.19081.32976c0-.36273-.3143-.65951-.69847-.65951-.38415 0-.51505.29678-.29083.65951.22405.36276.53848.65955.69847.65955.16013 0 .29083-.29679.29083-.65955zm6.89703.0457c.20869-.33768.0776-.80038-.29088-1.02824-.36863-.22778-.67028.0484-.67028.61397 0 1.1585.39577 1.32909.96116.41427zM41.55107 94.93131c0-.34134-.29678-.62062-.65955-.62062-.36276 0-.65953.46271-.65953 1.02824 0 .56554.29677.84479.65953.62061.36277-.22405.65955-.68689.65955-1.02823zm6.59539 0c0-.34134-.29679-.62062-.65952-.62062s-.65955.46271-.65955 1.02824c0 .56554.29682.84479.65955.62061.36273-.22405.65952-.68689.65952-1.02823zm6.59543.36868c0-.5441-.2968-.9893-.65956-.9893-.36273 0-.65952.4452-.65952.9893 0 .54412.29679.98933.65952.98933.36276 0 .65956-.44521.65956-.98933zm6.59542-.0389c0-.56552-.30164-.84184-.67031-.61396-.36867.22778-.49955.69054-.29085 1.02823.56538.91479.96116.7442.96116-.41427zm67.93272.0389c0-.5441-.29681-.9893-.65955-.9893-.36273 0-.65952.4452-.65952.9893 0 .54412.29679.98933.65952.98933.36274 0 .65955-.44521.65955-.98933zm6.59541 0c0-.5441-.29681-.9893-.65955-.9893-.36276 0-.65955.4452-.65955.9893 0 .54412.29679.98933.65955.98933.36274 0 .65955-.44521.65955-.98933zm13.85038-.36868c0-.34134-.29683-.62062-.65959-.62062-.36272 0-.65951.46271-.65951 1.02824 0 .56554.29679.84479.65951.62061.36276-.22405.65959-.68689.65959-1.02823zM38.25336 91.6723c0-.36274-.27928-.65955-.62062-.65955s-.80405.29681-1.02824.65955c-.22405.36273.055.65957.62062.65957.56552 0 1.02824-.29684 1.02824-.65957zm6.59543 0c0-.36274-.29681-.65955-.65957-.65955-.36274 0-.65951.29681-.65951.65955 0 .36273.29677.65957.65951.65957.36276 0 .65957-.29684.65957-.65957zm6.59539 0c0-.36274-.29679-.65955-.65952-.65955-.36278 0-.65957.29681-.65957.65955 0 .36273.29679.65957.65957.65957.36273 0 .65952-.29684.65952-.65957zm6.59542 0c0-.36274-.29679-.65955-.65955-.65955-.36273 0-.65952.29681-.65952.65955 0 .36273.29679.65957.65952.65957.36276 0 .65955-.29684.65955-.65957zm67.93272 0c0-.36274-.2968-.65955-.65956-.65955-.36273 0-.65952.29681-.65952.65955 0 .36273.29679.65957.65952.65957.36276 0 .65956-.29684.65956-.65957zm6.59541 0c0-.36274-.29679-.65955-.65954-.65955-.36277 0-.65956.29681-.65956.65955 0 .36273.29679.65957.65956.65957.36275 0 .65954-.29684.65954-.65957zm6.5954 0c0-.36274-.29677-.65955-.65953-.65955-.36275 0-.65952.29681-.65952.65955 0 .36273.29677.65957.65952.65957.36276 0 .65953-.29684.65953-.65957zm-97.61206-3.2977c0-.36273-.29678-.65953-.65955-.65953-.36276 0-.65953.2968-.65953.65953 0 .36276.29677.65955.65953.65955.36277 0 .65955-.29679.65955-.65955zm6.59539 0c0-.36273-.29679-.65953-.65952-.65953s-.65955.2968-.65955.65953c0 .36276.29682.65955.65955.65955s.65952-.29679.65952-.65955zm6.59543 0c0-.36273-.2968-.65953-.65956-.65953-.36273 0-.65952.2968-.65952.65953 0 .36276.29679.65955.65952.65955.36276 0 .65956-.29679.65956-.65955zm6.59542 0c0-.36273-.13107-.65953-.29084-.65953-.15997 0-.47431.2968-.69849.65953-.22405.36276-.0933.65955.29085.65955s.69848-.29679.69848-.65955zm67.93272 0c0-.36273-.29681-.65953-.65955-.65953-.36273 0-.65952.2968-.65952.65953 0 .36276.29679.65955.65952.65955.36274 0 .65955-.29679.65955-.65955zm6.59541 0c0-.36273-.29681-.65953-.65955-.65953-.36276 0-.65955.2968-.65955.65953 0 .36276.29679.65955.65955.65955.36274 0 .65955-.29679.65955-.65955zm6.92518 0c-.22406-.36273-.68692-.65953-1.02824-.65953-.34132 0-.62062.2968-.62062.65953 0 .36276.46272.65955 1.02824.65955s.84481-.29679.62062-.65955zM38.25336 85.07688c0-.36273-.27928-.65952-.62062-.65952s-.80405.29679-1.02824.65952c-.22405.36277.055.65955.62062.65955.56552 0 1.02824-.29678 1.02824-.65955zm6.59543 0c0-.36273-.29681-.65952-.65957-.65952-.36274 0-.65951.29679-.65951.65952 0 .36277.29677.65955.65951.65955.36276 0 .65957-.29678.65957-.65955zm6.59539 0c0-.36273-.29679-.65952-.65952-.65952-.36278 0-.65957.29679-.65957.65952 0 .36277.29679.65955.65957.65955.36273 0 .65952-.29678.65952-.65955zm6.59542 0c0-.36273-.29679-.65952-.65955-.65952-.36273 0-.65952.29679-.65952.65952 0 .36277.29679.65955.65952.65955.36276 0 .65955-.29678.65955-.65955zm67.93272 0c0-.36273-.2968-.65952-.65956-.65952-.36273 0-.65952.29679-.65952.65952 0 .36277.29679.65955.65952.65955.36276 0 .65956-.29678.65956-.65955zm6.59541 0c0-.36273-.29679-.65952-.65954-.65952-.36277 0-.65956.29679-.65956.65952 0 .36277.29679.65955.65956.65955.36275 0 .65954-.29678.65954-.65955zm6.92517 0c-.22407-.36273-.68687-.65952-1.02824-.65952-.34132 0-.62058.29679-.62058.65952 0 .36277.4627.65955 1.02822.65955.56551 0 .8448-.29678.6206-.65955zm6.92518 0c0-.36273-.29677-.65952-.65953-.65952-.36276 0-.65955.29679-.65955.65952 0 .36277.29679.65955.65955.65955.36276 0 .65953-.29678.65953-.65955zM41.55107 81.7792c0-.36276-.29678-.65955-.65955-.65955-.36276 0-.65953.29679-.65953.65955 0 .36273.29677.65953.65953.65953.36277 0 .65955-.2968.65955-.65953zm6.59539 0c0-.36276-.29679-.65955-.65952-.65955s-.65955.29679-.65955.65955c0 .36273.29682.65953.65955.65953s.65952-.2968.65952-.65953zm6.59543 0c0-.36276-.2968-.65955-.65956-.65955-.36273 0-.65952.29679-.65952.65955 0 .36273.29679.65953.65952.65953.36276 0 .65956-.2968.65956-.65953zm6.59542 0c0-.36276-.13107-.65955-.29084-.65955-.15997 0-.47431.29679-.69849.65955-.22405.36273-.0933.65953.29085.65953s.69848-.2968.69848-.65953zm67.93272 0c0-.36276-.29681-.65955-.65955-.65955-.36273 0-.65952.29679-.65952.65955 0 .36273.29679.65953.65952.65953.36274 0 .65955-.2968.65955-.65953zm6.59541 0c0-.36276-.29681-.65955-.65955-.65955-.36276 0-.65955.29679-.65955.65955 0 .36273.29679.65953.65955.65953.36274 0 .65955-.2968.65955-.65953zm6.92518 0c-.22406-.36276-.68692-.65955-1.02824-.65955-.34132 0-.62062.29679-.62062.65955 0 .36273.46272.65953 1.02824.65953s.84481-.2968.62062-.65953zm6.9252 0c0-.36276-.29683-.65955-.65959-.65955-.36272 0-.65951.29679-.65951.65955 0 .36273.29679.65953.65951.65953.36276 0 .65959-.2968.65959-.65953zM38.25336 78.4815c0-.36273-.46272-.65957-1.02824-.65957-.56554 0-.8448.29684-.62062.65957.22406.36273.6869.65952 1.02824.65952.34134 0 .62062-.29679.62062-.65952zm6.59543 0c0-.36273-.29681-.65957-.65957-.65957-.36274 0-.65951.29684-.65951.65957s.29677.65952.65951.65952c.36276 0 .65957-.29679.65957-.65952zm6.59539 0c0-.36273-.29679-.65957-.65952-.65957-.36278 0-.65957.29684-.65957.65957s.29679.65952.65957.65952c.36273 0 .65952-.29679.65952-.65952zm6.59542 0c0-.36273-.29679-.65957-.65955-.65957-.36273 0-.65952.29684-.65952.65957s.29679.65952.65952.65952c.36276 0 .65955-.29679.65955-.65952zm67.93272 0c0-.36273-.2968-.65957-.65956-.65957-.36273 0-.65952.29684-.65952.65957s.29679.65952.65952.65952c.36276 0 .65956-.29679.65956-.65952zm6.59541 0c0-.36273-.29679-.65957-.65954-.65957-.36277 0-.65956.29684-.65956.65957s.29679.65952.65956.65952c.36275 0 .65954-.29679.65954-.65952zm6.92517 0c.22405-.36273-.055-.65957-.6206-.65957-.56552 0-1.02822.29684-1.02822.65957s.27926.65952.62058.65952c.34137 0 .80407-.29679 1.02824-.65952zm6.92518 0c0-.36273-.29677-.65957-.65953-.65957-.36276 0-.65955.29684-.65955.65957s.29679.65952.65955.65952c.36276 0 .65953-.29679.65953-.65952zM41.55107 75.18378c0-.36273-.46271-.65952-1.02823-.65952s-.84482.29679-.62062.65952c.22405.36276.6869.65955 1.02824.65955.34132 0 .62061-.29679.62061-.65955zm6.59539 0c0-.36273-.29679-.65952-.65952-.65952s-.65955.29679-.65955.65952c0 .36276.29682.65955.65955.65955s.65952-.29679.65952-.65955zm6.59543 0c0-.36273-.2968-.65952-.65956-.65952-.36273 0-.65952.29679-.65952.65952 0 .36276.29679.65955.65952.65955.36276 0 .65956-.29679.65956-.65955zm6.59542 0c0-.36273-.31433-.65952-.69848-.65952-.38417 0-.51503.29679-.29085.65952.22406.36276.53852.65955.69849.65955.15997 0 .29084-.29679.29084-.65955zm67.93272 0c0-.36273-.29681-.65952-.65955-.65952-.36273 0-.65952.29679-.65952.65952 0 .36276.29679.65955.65952.65955.36274 0 .65955-.29679.65955-.65955zm6.59541 0c0-.36273-.29681-.65952-.65955-.65952-.36276 0-.65955.29679-.65955.65952 0 .36276.29679.65955.65955.65955.36274 0 .65955-.29679.65955-.65955zm6.92518 0c.22404-.36273-.0725-.65952-.65955-.65952-.58695 0-.88372.29679-.65954.65952.22405.36276.52099.65955.65954.65955.13865 0 .43533-.29679.65955-.65955zm6.9252 0c0-.36273-.29683-.65952-.65959-.65952-.36272 0-.65951.29679-.65951.65952 0 .36276.29679.65955.65951.65955.36276 0 .65959-.29679.65959-.65955zM37.92359 71.88606c.22407-.36274-.0725-.65951-.65953-.65951-.58695 0-.88374.29677-.65956.65951.22406.36276.52099.65957.65956.65957.13865 0 .43533-.29681.65953-.65957zm6.56723.0457c.20867-.3377.078-.80041-.29083-1.02824-.36867-.22778-.67028.0484-.67028.61397 0 1.15848.39573 1.32905.96111.41427zm6.95336-.008c0-.34132-.29679-.80405-.65952-1.02824-.36278-.22405-.65957.0551-.65957.62065 0 .56552.29679 1.02822.65957 1.02822.36273 0 .65952-.27929.65952-.62063zm6.59542-.40759c0-.56554-.30164-.84184-.67032-.61397-.36864.22779-.49955.69053-.29083 1.02824.56537.91479.96115.7442.96115-.41427zm67.93272.36865c0-.36272-.2968-.65951-.65956-.65951-.36273 0-.65952.29679-.65952.65951 0 .36276.29679.65957.65952.65957.36276 0 .65956-.29681.65956-.65957zm6.59541 0c0-.36272-.29679-.65951-.65954-.65951-.36277 0-.65956.29679-.65956.65951 0 .36276.29679.65957.65956.65957.36275 0 .65954-.29681.65954-.65957zm6.5954-.36865c0-.56554-.30162-.84184-.67032-.61397-.36863.22779-.49951.69053-.29082 1.02824.56538.91479.96114.7442.96114-.41427zm6.89703.41427c.20869-.33771.0776-.8004-.29088-1.02824-.36863-.22778-.67028.0484-.67028.61397 0 1.15847.39577 1.32906.96116.41427zm-97.9137-4.04175c0-.34135-.29679-.62065-.65952-.62065s-.65955.46271-.65955 1.02824c0 .56555.29682.84479.65955.62064.36273-.22407.65952-.68691.65952-1.02823zm13.19085.32975c0-.56552-.30164-.84181-.67031-.61395-.36867.22776-.49955.69052-.29085 1.02822.56538.91482.96116.74423.96116-.41427zm81.41849-.34717c-.2124-.34359-.66721-.45098-1.01082-.23845-.3436.2124-.45099.66723-.23844 1.01082.21238.3436.66724.45099 1.01084.23845.3436-.2124.45096-.66724.23869-1.01082zm6.60203.76144c.20869-.3377.0776-.80039-.29081-1.02822-.36867-.22778-.6703.0484-.6703.61395 0 1.1585.39573 1.32909.96111.41427zm-107.80676-.70519c0-.36274-.27929-.65955-.62061-.65955-.34134 0-.80406.29681-1.02824.65955-.22405.36273.055.65954.62062.65954.56552 0 1.02823-.29681 1.02823-.65954zm13.19082 0c0-.36274-.2968-.65955-.65956-.65955-.36273 0-.65952.29681-.65952.65955 0 .36273.29679.65954.65952.65954.36276 0 .65956-.29681.65956-.65954zm79.70323-6.38596c6.76652-3.875 12.83679-7.40052 13.4895-7.83446 1.34642-.89523 4.09208.77832-47.02485-28.66204-16.50503-9.50594-31.70946-18.30674-33.7877-19.55739L63.3435 3.21379l-13.53441 7.77534c-7.44389 4.27646-13.53435 7.93248-13.53435 8.12451 0 .19206 8.50288 5.24369 18.89532 11.22583 10.39242 5.98216 29.4614 17.01067 42.37551 24.5078 12.9141 7.49712 23.73142 13.65562 24.03848 13.68547.30708.03 6.09454-3.11616 12.86107-6.99117zm1.42032 6.38596c0-.36274-.29681-.65955-.65955-.65955-.36276 0-.65955.29681-.65955.65955 0 .36273.29679.65954.65955.65954.36274 0 .65955-.29681.65955-.65954zm-97.61208-3.2977c0-.36273-.27928-.65955-.62062-.65955s-.80405.29682-1.02824.65955c-.22405.36276.055.65955.62062.65955.56552 0 1.02824-.29679 1.02824-.65955zm6.59543 0c0-.36273-.29681-.65955-.65957-.65955-.36274 0-.65951.29682-.65951.65955 0 .36276.29677.65955.65951.65955.36276 0 .65957-.29679.65957-.65955zm6.59539 0c0-.36273-.29679-.65955-.65952-.65955-.36278 0-.65957.29682-.65957.65955 0 .36276.29679.65955.65957.65955.36273 0 .65952-.29679.65952-.65955zm6.59542 0c0-.36273-.29679-.65955-.65955-.65955-.36273 0-.65952.29682-.65952.65955 0 .36276.29679.65955.65952.65955.36276 0 .65955-.29679.65955-.65955zm81.12353 0c0-.36273-.29677-.65955-.65953-.65955-.36275 0-.65952.29682-.65952.65955 0 .36276.29677.65955.65952.65955.36276 0 .65953-.29679.65953-.65955zm7.25495 0c0-.36273-.29677-.65955-.65953-.65955-.36276 0-.65955.29682-.65955.65955 0 .36276.29679.65955.65955.65955.36276 0 .65953-.29679.65953-.65955zM41.55107 61.33211c0-.36275-.29678-.65952-.65955-.65952-.36276 0-.65953.29677-.65953.65952 0 .36276.29677.65953.65953.65953.36277 0 .65955-.29677.65955-.65953zm6.59539 0c0-.36275-.29679-.65952-.65952-.65952s-.65955.29677-.65955.65952c0 .36276.29682.65953.65955.65953s.65952-.29677.65952-.65953zm6.59543 0c0-.36275-.2968-.65952-.65956-.65952-.36273 0-.65952.29677-.65952.65952 0 .36276.29679.65953.65952.65953.36276 0 .65956-.29677.65956-.65953zm6.59542 0c0-.36275-.2968-.65952-.65954-.65952-.36277 0-.65957.29677-.65957.65952 0 .36276.2968.65953.65957.65953.36274 0 .65954-.29677.65954-.65953zm81.45331 0c.22404-.36275.11089-.65952-.25194-.65952-.36272 0-.84295.29677-1.06715.65952-.22407.36276-.11089.65953.25195.65953.36272 0 .84292-.29677 1.06714-.65953zm6.9252 0c0-.36275-.29683-.65952-.65959-.65952-.36272 0-.65951.29677-.65951.65952 0 .36276.29679.65953.65951.65953.36276 0 .65959-.29677.65959-.65953zM38.25336 58.0343c0-.36276-.46272-.65953-1.02824-.65953-.56554 0-.8448.29677-.62062.65953.22406.36275.6869.65956 1.02824.65956.34134 0 .62062-.29681.62062-.65956zm6.59543 0c0-.36276-.29681-.65953-.65957-.65953-.36274 0-.65951.29677-.65951.65953 0 .36275.29677.65956.65951.65956.36276 0 .65957-.29681.65957-.65956zm6.59539 0c0-.36276-.29679-.65953-.65952-.65953-.36278 0-.65957.29677-.65957.65953 0 .36275.29679.65956.65957.65956.36273 0 .65952-.29681.65952-.65956zm6.59542 0c0-.36276-.29679-.65953-.65955-.65953-.36273 0-.65952.29677-.65952.65953 0 .36275.29679.65956.65952.65956.36276 0 .65955-.29681.65955-.65956zm-16.48853-3.29768c0-.36276-.46271-.65957-1.02823-.65957s-.84482.29681-.62062.65957c.22405.36273.6869.65952 1.02824.65952.34132 0 .62061-.29679.62061-.65952zm6.59539 0c0-.36276-.29679-.65957-.65952-.65957s-.65955.29681-.65955.65957c0 .36273.29682.65952.65955.65952s.65952-.29679.65952-.65952zm6.59543 0c0-.36276-.2968-.65957-.65956-.65957-.36273 0-.65952.29681-.65952.65957 0 .36273.29679.65952.65952.65952.36276 0 .65956-.29679.65956-.65952zm6.59542 0c0-.36276-.2968-.65957-.65954-.65957-.36277 0-.65957.29681-.65957.65957 0 .36273.2968.65952.65957.65952.36274 0 .65954-.29679.65954-.65952zM49.29439 43.01271c5.52844-3.16468 10.05454-5.93595 10.05801-6.15837.003-.22231-6.04467-3.87604-13.4403-8.11915l-13.44654-7.71471-13.64638 7.90221-13.64639 7.90225 6.15251 3.59141c3.3839 1.97528 9.53345 5.54223 13.66573 7.92654l7.51319 4.33513 3.36923-1.95568c1.85306-1.07563 7.89251-4.54499 13.42094-7.70963zm-4.4456 8.42619c0-.36275-.29681-.65952-.65957-.65952-.36274 0-.65951.29677-.65951.65952 0 .36273.29677.65953.65951.65953.36276 0 .65957-.2968.65957-.65953zm6.59539 0c0-.36275-.29679-.65952-.65952-.65952-.36278 0-.65957.29677-.65957.65952 0 .36273.29679.65953.65957.65953.36273 0 .65952-.2968.65952-.65953zm6.59542 0c0-.36275-.29679-.65952-.65955-.65952-.36273 0-.65952.29677-.65952.65952 0 .36273.29679.65953.65952.65953.36276 0 .65955-.2968.65955-.65953zm-9.89314-3.29772c0-.36274-.13075-.65953-.29083-.65953-.15997 0-.47429.29679-.69845.65953-.22406.36276-.0933.65957.29083.65957.38415 0 .69845-.29681.69845-.65957zm6.59543-.36867c0-.56554-.2968-.84483-.65956-.62064-.36273.22407-.65952.68691-.65952 1.02826 0 .34133.29679.62062.65952.62062.36276 0 .65956-.46271.65956-1.02824zm6.59542 0c0-.56554-.30164-.84184-.67031-.61396-.36867.22778-.49955.69053-.29085 1.02824.56538.91478.96116.74419.96116-.41428zm-3.29771-3.29762c0-.56553-.29679-.84483-.65955-.62061-.36273.22405-.65952.68689-.65952 1.02824 0 .34132.29679.62061.65952.62061.36276 0 .65955-.46271.65955-1.02824zm3.29771-3.29771c0-.56554-.30164-.8418-.67031-.61397-.36867.22778-.49955.69056-.29085 1.02824.56538.9148.96116.74424.96116-.41427z"/>
</svg>
